<?xml version="1.0" encoding="utf-8"?>
<!-- Generator: Adobe Illustrator 24.0.1, SVG Export Plug-In . SVG Version: 6.00 Build 0)  -->
<svg version="1.1" id="Layer_1" xmlns="http://www.w3.org/2000/svg" xmlns:xlink="http://www.w3.org/1999/xlink" x="0px" y="0px"
	 viewBox="0 0 110 110" style="enable-background:new 0 0 110 110;" xml:space="preserve">
<style type="text/css">
	.st0{fill:#EBEBEB;}
	.st1{fill:#74D5E8;}
	.st2{fill:#A3771D;}
	.st3{fill:#FFB41F;}
	.st4{fill:#8F6819;}
	.st5{fill:#FFDD99;}
	.st6{fill:#6CC7D9;}
</style>
<path class="st0" d="M90.5,19.1h-27c-1.5,0-2.7,1.2-2.7,2.7v37.7c0,1.5,1.2,2.7,2.7,2.7h27c1.5,0,2.7-1.2,2.7-2.7V21.8
	C93.2,20.3,91.9,19.1,90.5,19.1z M66.2,24.5h21.6v5.4H66.2V24.5z"/>
<path class="st1" d="M66.2,24.5h21.6v5.4H66.2V24.5z"/>
<path class="st2" d="M65.7,89.7l-3.4-3.1c1.3-1.3,2.2-2.9,2.8-4.6v-0.1c0.4-1.1,0.5-2.3,0.5-3.5H51.5c-2.5,5-8.2,7.7-13.6,6.4
	c-5.5-1.3-9.4-6.2-9.4-11.8c0-5.6,3.9-10.5,9.4-11.8s11.1,1.4,13.6,6.4H61L46,42l9.4-21.6l-9.4,4l0.3-0.7l1-3.3l-9.4,4L29.8,19
	l1.3,5.4L23,23.1L32.5,42L16.8,73c-1,1.8-1.4,3.8-1.3,5.9c0.2,2.9,1.4,5.6,3.4,7.7L16,89.7c-0.7,0.9-0.9,2.2,0.3,2.2h48.5
	c0.5,0,1-0.3,1.1-0.8C66.2,90.6,66,90,65.7,89.7z"/>
<g>
	<path class="st3" d="M93.2,33.9H60.8v2.7h14.8v10.8H60.8v2.7h14.8v12.1h2.7V50.1h14.8v-2.7H78.3V36.6h14.8L93.2,33.9L93.2,33.9z"/>
	<path class="st3" d="M67.5,37.9v2.7h-2.7v2.7h2.7V46h2.7v-2.7h2.7v-2.7h-2.7v-2.7C70.2,37.9,67.5,37.9,67.5,37.9z"/>
	<path class="st3" d="M81,40.6h8.1v2.7H81V40.6z"/>
	<path class="st3" d="M70.8,51.8l-1.9,1.9L67,51.8l-1.9,1.9l1.9,1.9l-1.9,1.9l1.9,1.9l1.9-1.9l1.9,1.9l1.9-1.9l-1.9-1.9l1.9-1.9
		L70.8,51.8z"/>
	<path class="st3" d="M81,54.1h8.1v2.7H81V54.1z"/>
	<path class="st3" d="M83.7,57.5h2.7v1.3h-2.7V57.5z"/>
	<path class="st3" d="M83.7,52.1h2.7v1.3h-2.7V52.1z"/>
</g>
<path class="st4" d="M47.6,44.7L46,42l1.2-2.7h-2.3L46,24.5l-3.4,14.8h-6.8l-4.6-14.8l2.3,14.8h-2.3l1.3,2.7l-1.4,2.7H33l-2.7,8.8
	c-0.4,1.4,0.2,3,1.5,3.8s2.9,0.6,4-0.5l3.1-3.1L37,51.8l-3.1,3.1c-0.2,0.2-0.5,0.2-0.7,0.1s-0.3-0.4-0.3-0.7l2.9-9.6h5.4l2.2,9.7
	l2.6-0.6l-2-9.1C44,44.7,47.6,44.7,47.6,44.7z"/>
<path class="st4" d="M56.9,60.5l0.4,3.5c0.1,1.2,0.2,2.4,0.2,3.5H61L56.9,60.5z"/>
<path class="st4" d="M62.2,86.5c1.3-1.3,2.2-2.9,2.8-4.6v-0.1c0.4-1.1,0.5-2.3,0.5-3.5H54.7c-3.6,6.9-10.3,11.6-18,12.7l-5.5,0.8
	h33.7c0.5,0,1-0.3,1.1-0.8c0.2-0.5,0.1-1-0.3-1.4L62.2,86.5z"/>
<path class="st3" d="M61,67.6h-9.6c-2.5-5-8.2-7.7-13.6-6.4c-5.5,1.3-9.4,6.2-9.4,11.8c0,5.6,3.9,10.5,9.4,11.8s11.1-1.4,13.6-6.4
	h28.2v-2.7h2.7v-4c0-2.2,1.8-4,4-4H61V67.6z"/>
<path class="st5" d="M51.4,71.6h2.7v2.7h-2.7V71.6z"/>
<path class="st5" d="M56.8,71.6h4v2.7h-4V71.6z"/>
<path class="st5" d="M63.5,71.6h12.1v2.7H63.5V71.6z"/>
<path class="st1" d="M93.2,74.3h-1.3v-2.7c0-3-2.4-5.4-5.4-5.4s-5.4,2.4-5.4,5.4v2.7h-1.3c-0.7,0-1.3,0.6-1.3,1.3v10.8
	c0,0.7,0.6,1.3,1.3,1.3h13.5c0.7,0,1.3-0.6,1.3-1.3V75.7C94.5,74.9,93.9,74.3,93.2,74.3z M83.7,71.6c0-1.5,1.2-2.7,2.7-2.7
	s2.7,1.2,2.7,2.7v2.7h-5.4C83.7,74.3,83.7,71.6,83.7,71.6z"/>
<path class="st0" d="M86.4,79.7c0.7,0,1.3,0.6,1.3,1.3s-0.6,1.3-1.3,1.3s-1.3-0.6-1.3-1.3S85.7,79.7,86.4,79.7z"/>
<path class="st6" d="M79.7,87.8h10.6c-4.9-3.3-8.7-8-11-13.4c-0.6,0.2-1,0.7-1,1.3v10.8C78.3,87.2,78.9,87.8,79.7,87.8z"/>
<g>
	<g>
		<path class="st5" d="M45.2,70h-1c-0.1-0.7-0.4-1.3-0.8-1.8h1.8c0.5,0,0.9-0.4,0.9-0.9c0-0.5-0.4-0.9-0.9-0.9h-5.3h-3.6
			c-0.5,0-0.9,0.4-0.9,0.9c0,0.5,0.4,0.9,0.9,0.9h3.6c1.2,0,2.1,0.7,2.5,1.8h-6.1c-0.5,0-0.9,0.4-0.9,0.9c0,0.5,0.4,0.9,0.9,0.9h6.1
			c-0.4,1-1.3,1.8-2.5,1.8h-3.6c-0.1,0-0.2,0-0.3,0.1c-0.2,0.1-0.4,0.3-0.5,0.5c-0.1,0.2-0.1,0.5,0,0.7c0,0.1,0.1,0.2,0.2,0.3
			l7.1,7.1c0.2,0.2,0.4,0.3,0.6,0.3s0.5-0.1,0.6-0.3c0.3-0.3,0.3-0.9,0-1.3l-5.6-5.6h1.4c2.1,0,3.9-1.5,4.4-3.6h1
			c0.5,0,0.9-0.4,0.9-0.9C46.1,70.4,45.7,70,45.2,70z"/>
	</g>
</g>
</svg>
