<?xml version="1.0" encoding="utf-8"?>
<!-- Generator: Adobe Illustrator 24.0.1, SVG Export Plug-In . SVG Version: 6.00 Build 0)  -->
<svg version="1.1" id="Capa_1" xmlns="http://www.w3.org/2000/svg" xmlns:xlink="http://www.w3.org/1999/xlink" x="0px" y="0px"
	 viewBox="0 0 110 110" style="enable-background:new 0 0 110 110;" xml:space="preserve">
<style type="text/css">
	.st0{fill:#F9F3F1;}
	.st1{fill:#E1D3CE;}
	.st2{fill:#FE646F;}
	.st3{fill:#8AC9FE;}
	.st4{fill:#6CF5C2;}
	.st5{fill:#05E39C;}
	.st6{fill:#A79BA7;}
	.st7{fill:#7A6D79;}
	.st8{fill:#60B7FF;}
	.st9{fill:#FD4755;}
</style>
<g>
	<path class="st0" d="M88.6,55.7v39c0,2.1-1.7,3.8-3.8,3.8H24.3c-2.1,0-3.8-1.7-3.8-3.8v-39v-6.2l35.6-19.6l32.4,20.7L88.6,55.7z"/>
	<path class="st0" d="M22.8,41.5L36,34.6V22.9c0-1.3-1.2-2.4-2.7-2.4h-7.8c-1.5,0-2.7,1.1-2.7,2.4L22.8,41.5"/>
	<path class="st1" d="M29.6,98.5h-5.3c-2.1,0-3.8-1.7-3.8-3.8V49.5l5.3-2.9v47.7C25.8,96.6,27.5,98.5,29.6,98.5L29.6,98.5z"/>
	<path class="st1" d="M30.8,20.5c-1.5,0-2.7,1.1-2.7,2.4v15.7l-5.3,2.8V22.9c0-1.3,1.2-2.4,2.7-2.4L30.8,20.5L30.8,20.5z"/>
	<path class="st2" d="M97.6,48.5l-4.4,7.5c-0.5,0.8-1.5,1.1-2.3,0.6L55,36L27.3,52l-8.1,4.7c-0.8,0.5-1.9,0.2-2.3-0.6l-4.4-7.5
		c-0.5-0.8-0.2-1.9,0.6-2.3l13.6-7.8L42.9,29L55,22l12.1,7l29.8,17.2C97.7,46.7,98,47.7,97.6,48.5L97.6,48.5z"/>
	<path class="st3" d="M81.1,83.9H65.7c-0.6,0-1.1-0.5-1.1-1.1V66.7c0-0.6,0.5-1.1,1.1-1.1h15.3c0.6,0,1.1,0.5,1.1,1.1v16.1
		C82.2,83.4,81.7,83.9,81.1,83.9z"/>
	<circle class="st4" cx="75.7" cy="32.3" r="20.8"/>
	<path class="st5" d="M78.4,53c-0.9,0.1-1.8,0.2-2.7,0.2c-11.5,0-20.8-9.3-20.8-20.8c0-11.5,9.3-20.8,20.8-20.8
		c0.9,0,1.8,0.1,2.7,0.2C68.1,13,60.2,21.7,60.2,32.3C60.2,42.9,68.1,51.7,78.4,53z"/>
	<path class="st6" d="M32.6,98.5l23.3,0V69.2c0-1.9-1.6-3.5-3.5-3.5H36.1c-1.9,0-3.5,1.6-3.5,3.5L32.6,98.5"/>
	<path class="st7" d="M41.4,65.7c-1.9,0-3.5,1.6-3.5,3.5v29.2h-5.3V69.2c0-1.9,1.6-3.5,3.5-3.5H41.4z"/>
	<path class="st8" d="M71,83.9h-5.3c-0.6,0-1.1-0.5-1.1-1.1V66.7c0-0.6,0.5-1.1,1.1-1.1H71c-0.6,0-1.1,0.5-1.1,1.1v16.1
		C69.9,83.4,70.4,83.9,71,83.9z"/>
	<path class="st9" d="M23.1,54.4l-4,2.3c-0.8,0.5-1.9,0.2-2.3-0.6l-4.4-7.5c-0.5-0.8-0.2-1.9,0.6-2.3l4.6-2.7
		c-0.2,0.5-0.2,1.2,0.1,1.7l4.4,8.3C22.3,54,22.7,54.3,23.1,54.4L23.1,54.4z"/>
	<path class="st5" d="M73.7,41.2c-0.4,0-0.7-0.1-0.9-0.4l-7.9-8.4c-0.5-0.5-0.5-1.3,0.1-1.8c0.5-0.5,1.3-0.5,1.8,0.1l6.8,7.3
		l10.8-14c0.4-0.6,1.3-0.7,1.8-0.2c0.6,0.4,0.7,1.3,0.2,1.8L74.8,40.7C74.5,41,74.2,41.2,73.7,41.2C73.8,41.2,73.8,41.2,73.7,41.2
		L73.7,41.2z"/>
</g>
</svg>
