<?xml version="1.0" encoding="utf-8"?>
<!-- Generator: Adobe Illustrator 24.0.1, SVG Export Plug-In . SVG Version: 6.00 Build 0)  -->
<svg version="1.1" id="Capa_1" xmlns="http://www.w3.org/2000/svg" xmlns:xlink="http://www.w3.org/1999/xlink" x="0px" y="0px"
	 viewBox="0 0 110 110" style="enable-background:new 0 0 110 110;" xml:space="preserve">
<style type="text/css">
	.st0{fill:#FDC567;}
	.st1{fill:#E65039;}
	.st2{fill:#FEF0D9;}
	.st3{fill:#FCB641;}
	.st4{fill:#FDD38D;}
</style>
<path class="st0" d="M40.9,48.1c-0.2-0.3-0.6-0.5-1-0.5H22.7c-0.4,0-0.8,0.2-1,0.5s-0.3,0.7-0.2,1.1l2.5,7.4
	c0.2,0.5,0.6,0.8,1.2,0.8h12.3c0.5,0,1-0.3,1.2-0.8l2.5-7.4C41.2,48.9,41.2,48.5,40.9,48.1z"/>
<path class="st1" d="M91.3,21.8h-9.6c-0.6,0-1.1,0.5-1.2,1c0,0.1-0.1,0.2-0.2,0.2H58.6c-0.1,0-0.2-0.1-0.2-0.2c-0.1-0.6-0.6-1-1.2-1
	h-9.6c-1.5,0-2.7,1.2-2.7,2.7v69.8h46.7c1.4,0,2.5-1.1,2.5-2.5V24.5C94,23,92.8,21.8,91.3,21.8z"/>
<path class="st2" d="M86.6,32.9H52.2c-0.7,0-1.2,0.6-1.2,1.2v29.5c0,0.7,0.6,1.2,1.2,1.2H78c0.7,0,1.2,0.6,1.2,1.2v18.4
	c0,0.7,0.5,1.2,1.2,1.2h6.1c0.7,0,1.2-0.6,1.2-1.2V34.1C87.9,33.4,87.3,32.9,86.6,32.9z"/>
<path class="st3" d="M79.3,62.4H43.6l-3.7,31.9h39.3c1.4,0,2.5-1.1,2.5-2.5v-27C81.7,63.5,80.6,62.4,79.3,62.4z"/>
<g>
	<circle class="st0" cx="55.9" cy="78.3" r="7.4"/>
	<path class="st0" d="M73.1,89.4h-11c-0.7,0-1.2-0.6-1.2-1.2c0-0.7,0.5-1.2,1.2-1.2h9.8v-1.2c0-0.3,0.1-0.6,0.4-0.9l2.1-2.1V74
		l-2.1-2.1c-0.2-0.2-0.4-0.5-0.4-0.9v-1.2h-9.8c-0.7,0-1.2-0.6-1.2-1.2s0.5-1.2,1.2-1.2h11.1c0.7,0,1.2,0.6,1.2,1.2v1.9l2.1,2.1
		c0.2,0.2,0.4,0.5,0.4,0.9v9.8c0,0.3-0.1,0.6-0.4,0.9l-2.1,2.1v1.9C74.3,88.9,73.8,89.4,73.1,89.4z"/>
	<path class="st0" d="M49.8,69.7h-6.1c-0.7,0-1.2-0.6-1.2-1.2c0-0.7,0.6-1.2,1.2-1.2h6.1c0.7,0,1.2,0.6,1.2,1.2
		C51,69.2,50.4,69.7,49.8,69.7z"/>
	<path class="st0" d="M49.8,89.4h-3.7c-0.7,0-1.2-0.6-1.2-1.2c0-0.7,0.6-1.2,1.2-1.2h3.7c0.7,0,1.2,0.6,1.2,1.2
		C51,88.9,50.4,89.4,49.8,89.4z"/>
</g>
<path class="st3" d="M80.5,15.7H58.4c-1.4,0-2.5,1.1-2.5,2.5v12.3h27V18.1C82.9,16.8,81.8,15.7,80.5,15.7z"/>
<g>
	<path class="st1" d="M79.3,48.9c-0.7,0-1.2-0.6-1.2-1.2v-1.8l-8.6-5.4l-8.6,5.4v1.8c0,0.7-0.5,1.2-1.2,1.2s-1.2-0.6-1.2-1.2v-2.5
		c0-0.4,0.2-0.8,0.6-1l9.8-6.1c0.4-0.2,0.9-0.2,1.3,0l9.8,6.1c0.4,0.2,0.6,0.6,0.6,1v2.5C80.5,48.3,79.9,48.9,79.3,48.9z"/>
	<path class="st1" d="M76.8,59.9h-4.9c-0.7,0-1.2-0.6-1.2-1.2v-7.4h-2.5v7.4c0,0.7-0.5,1.2-1.2,1.2h-4.9c-0.7,0-1.2-0.6-1.2-1.2
		v-8.6c0-0.7,0.5-1.2,1.2-1.2s1.2,0.6,1.2,1.2v7.4h2.5v-6.1c0-1.4,1.1-2.5,2.5-2.5h2.5c1.4,0,2.5,1.1,2.5,2.5v6.1h2.5v-7.4
		c0-0.7,0.5-1.2,1.2-1.2s1.2,0.6,1.2,1.2v8.6C78,59.4,77.5,59.9,76.8,59.9z"/>
	<path class="st1" d="M70.7,46.4h-2.5c-0.7,0-1.2-0.6-1.2-1.2s0.5-1.2,1.2-1.2h2.5c0.7,0,1.2,0.6,1.2,1.2S71.3,46.4,70.7,46.4z"/>
</g>
<path class="st0" d="M71.9,24.3H67c-0.7,0-1.2-0.6-1.2-1.2c0-0.7,0.5-1.2,1.2-1.2h4.9c0.7,0,1.2,0.6,1.2,1.2
	C73.1,23.7,72.6,24.3,71.9,24.3z"/>
<g>
	<path class="st3" d="M37.5,43.9c-0.3,0-0.5-0.1-0.8-0.3l-5.4-4.3L26,43.7c-0.5,0.4-1.3,0.3-1.7-0.2c-0.4-0.5-0.3-1.3,0.2-1.7
		l6.1-4.9c0.4-0.4,1.1-0.4,1.5,0l6.1,4.9c0.5,0.4,0.6,1.2,0.2,1.7C38.2,43.8,37.8,43.9,37.5,43.9z"/>
	<path class="st3" d="M37.5,26.7c-0.3,0-0.5-0.1-0.8-0.3l-5.4-4.3L26,26.5c-0.5,0.4-1.3,0.3-1.7-0.2c-0.4-0.5-0.3-1.3,0.2-1.7
		l6.1-4.9c0.4-0.4,1.1-0.4,1.5,0l6.1,4.9c0.5,0.4,0.6,1.2,0.2,1.7C38.2,26.6,37.8,26.7,37.5,26.7z"/>
	<path class="st3" d="M37.5,35.3c-0.3,0-0.5-0.1-0.8-0.3l-5.4-4.3L26,35.1c-0.5,0.4-1.3,0.3-1.7-0.2c-0.4-0.5-0.3-1.3,0.2-1.7
		l6.1-4.9c0.4-0.4,1.1-0.4,1.5,0l6.1,4.9c0.5,0.4,0.6,1.2,0.2,1.7C38.2,35.2,37.8,35.3,37.5,35.3z"/>
</g>
<path class="st4" d="M46.6,87.4l-3.3-27c-0.4-3.1-3-5.4-6.1-5.4H25.5c-3.1,0-5.7,2.3-6.1,5.4l-3.3,27c-0.2,1.7,0.3,3.5,1.5,4.8
	s2.8,2.1,4.6,2.1h18.4c1.8,0,3.4-0.8,4.6-2.1C46.3,90.9,46.8,89.2,46.6,87.4z"/>
<g>
	<g>
		<path class="st0" d="M37.4,70.3h-1.3c-0.2-0.9-0.6-1.7-1.1-2.4h2.5c0.7,0,1.2-0.5,1.2-1.2s-0.5-1.2-1.2-1.2h-7.3h-4.9
			c-0.7,0-1.2,0.5-1.2,1.2s0.5,1.2,1.2,1.2h4.9c1.6,0,2.9,1,3.4,2.4h-8.3c-0.7,0-1.2,0.5-1.2,1.2s0.5,1.2,1.2,1.2h8.3
			c-0.5,1.4-1.9,2.4-3.4,2.4h-4.9c-0.2,0-0.3,0-0.5,0.1c-0.3,0.1-0.5,0.4-0.7,0.7c-0.1,0.3-0.1,0.6,0,0.9c0.1,0.2,0.2,0.3,0.3,0.4
			l9.8,9.8c0.2,0.2,0.6,0.4,0.9,0.4s0.6-0.1,0.9-0.4c0.5-0.5,0.5-1.3,0-1.7l-7.7-7.7h1.9c3,0,5.4-2.1,6-4.9h1.3
			c0.7,0,1.2-0.5,1.2-1.2S38.1,70.3,37.4,70.3z"/>
	</g>
</g>
</svg>
