<?xml version="1.0" encoding="utf-8"?>
<!-- Generator: Adobe Illustrator 24.0.1, SVG Export Plug-In . SVG Version: 6.00 Build 0)  -->
<svg version="1.1" id="Layer_1" xmlns="http://www.w3.org/2000/svg" xmlns:xlink="http://www.w3.org/1999/xlink" x="0px" y="0px"
	 viewBox="0 0 110 110" style="enable-background:new 0 0 110 110;" xml:space="preserve">
<style type="text/css">
	.st0{fill:#A7C7D3;}
	.st1{fill:#89B4C9;}
	.st2{fill:#6C96B3;}
	.st3{fill:#618AAA;}
	.st4{fill:#2F5066;}
	.st5{fill:#FDB659;}
	.st6{fill:#83D9FF;}
	.st7{fill:#5FC9ED;}
	.st8{fill:#38627C;}
	.st9{fill:#4F7693;}
	.st10{fill:#FECBAA;}
</style>
<g>
	<path class="st0" d="M82.4,59.6h-9.6c-1.6,0-2.8,1.3-2.8,2.8l0,11.5c0-1.6-1.3-2.8-2.8-2.8l-9.6,0c-1.6,0-2.8,1.3-2.8,2.8l0,7.6
		c0-1.6-1.3-2.8-2.8-2.8h-9.6c-1.6,0-2.8,1.3-2.8,2.8v7.1c0-1.6-1.3-2.8-2.8-2.8l-9.6,0c-1.6,0-2.8,1.3-2.8,2.8l0,5.4l61.3,0l0-31.6
		C85.2,60.9,84,59.6,82.4,59.6z"/>
	<path class="st0" d="M74.1,60.8c-0.7,0-1.2-0.5-1.2-1.2l0-43.7c0-0.7,0.5-1.2,1.2-1.2c0.7,0,1.2,0.5,1.2,1.2l0,43.7
		C75.3,60.3,74.7,60.8,74.1,60.8z"/>
	<path class="st0" d="M39.2,94.1l-15.3,0l0-5.4c0-1.6,1.3-2.8,2.8-2.8l9.6,0c1.6,0,2.8,1.3,2.8,2.8L39.2,94.1z"/>
</g>
<path class="st1" d="M54.6,94.1H39.2l0-12.5c0-1.6,1.3-2.8,2.8-2.8h9.6c1.6,0,2.8,1.3,2.8,2.8L54.6,94.1z"/>
<path class="st2" d="M69.9,94.1l-15.3,0l0-20.1c0-1.6,1.3-2.8,2.8-2.8l9.6,0c1.6,0,2.8,1.3,2.8,2.8V94.1z"/>
<path class="st3" d="M85.2,94.1l-15.3,0l0-31.6c0-1.6,1.3-2.8,2.8-2.8h9.6c1.6,0,2.8,1.3,2.8,2.8L85.2,94.1z"/>
<path class="st4" d="M89.5,95.3l-69.6,0c-0.7,0-1.2-0.5-1.2-1.2s0.5-1.2,1.2-1.2l69.6,0c0.7,0,1.2,0.5,1.2,1.2S90.2,95.3,89.5,95.3z
	"/>
<path class="st5" d="M74.1,27.3l15.4,0c0.5,0,0.7-0.6,0.3-0.9l-4-3.5c-0.2-0.2-0.2-0.6,0-0.8l4-3.5c0.4-0.3,0.1-0.9-0.3-0.9l-15.4,0
	L74.1,27.3z"/>
<path class="st6" d="M75.3,31.9l-16.7,9.1c-1.5,0.8-1.9,2.2-2.4,4.1l-3.3,11.7l4.4,1.5l3.8-4.8l3.2-9.6l8.4-5.1
	C74.9,37.3,76,34.5,75.3,31.9z"/>
<path class="st7" d="M75.3,31.9l-1.9,1C73,34.6,72,36.1,70.5,37l-7.7,4.7c-0.5,0.3-0.8,0.7-1,1.3l-1.1,3.3c-1.1,3.4-3.7,6.2-7.1,7.6
	l-0.8,2.9l8.1-3.3l3.2-9.6l8.4-5.1C74.9,37.3,76,34.5,75.3,31.9z"/>
<path class="st8" d="M61,53.4l4.8,5.7c0.8,1.1,1.5,1.8,1.3,3L66,71.1h-2.9l-0.8-7.8c0-0.5-0.3-0.9-0.8-1.1l-8.7-5.5L61,53.4z"/>
<path class="st9" d="M52.9,56.7l-0.5,8.6c0,0.7,0.1,1.2-0.2,1.7l-5.5,11.7h3.1l8.3-11.1c0.5-0.6,0.5-1.3,0.7-2L61,53.4L52.9,56.7z"
	/>
<path class="st10" d="M60.4,33.7l1.4,2.7c0.6,1.3,0.1,2.8-1.1,3.4l-1.1,0.5c-1.3,0.6-2.8,0.1-3.4-1.1l-1.4-2.7
	c-0.6-1.3-0.1-2.8,1.1-3.4l1.1-0.5C58.2,32,59.8,32.5,60.4,33.7z"/>
</svg>
