<?xml version="1.0" encoding="utf-8"?>
<!-- Generator: Adobe Illustrator 24.0.1, SVG Export Plug-In . SVG Version: 6.00 Build 0)  -->
<svg version="1.1" id="Capa_1" xmlns="http://www.w3.org/2000/svg" xmlns:xlink="http://www.w3.org/1999/xlink" x="0px" y="0px"
	 viewBox="0 0 110 110" style="enable-background:new 0 0 110 110;" xml:space="preserve">
<style type="text/css">
	.st0{fill:#29ABE2;}
	.st1{fill:#CCCCCC;}
	.st2{fill:#F2C09A;}
	.st3{fill:#E9937C;}
	.st4{fill:#0071BC;}
	.st5{fill:#FED856;}
	.st6{fill:#CD9829;}
	.st7{fill:#CD9829;stroke:#CD9829;stroke-width:0.75;stroke-miterlimit:10;}
</style>
<path class="st0" d="M71.6,78.4h19.3v11H71.6V78.4z"/>
<path class="st1" d="M72.9,89.5h16.6v6.9H72.9V89.5z"/>
<path class="st2" d="M88.3,78.4l5.1-12.2c2.2-5.3,2.2-11.2,0.2-16.5l-8.1-21.3c-0.7-1.9-2.9-2.9-4.8-2.1l0,0
	c-1.9,0.7-2.8,2.8-2.1,4.7v0.1l4.9,11.5c0.3,0.6,0.4,1.3,0.5,2c-0.4-1.9-2.3-3-4.1-2.6c-1.6,0.4-2.7,1.7-2.7,3.4V56
	c0,1.3-0.3,2.6-0.9,3.7c-2.1,4.3-3.3,9-3.3,13.8v4.9H88.3L88.3,78.4z"/>
<g>
	<path class="st3" d="M76.2,59.8c0.6-1.2,0.9-2.4,0.9-3.7V45.3c0-1.9,1.5-3.4,3.4-3.4c0.5,0,0.9,0.1,1.4,0.3
		c-1.3,0.6-2.1,1.8-2.1,3.2V56c0,1.3-0.3,2.6-0.9,3.7c-2.1,4.3-3.3,9-3.3,13.8v4.9h-2.8v-4.9C72.9,68.8,74,64.1,76.2,59.8z"/>
	<path class="st3" d="M80.5,26.3c0.9-0.3,1.9-0.3,2.7,0c-1.9,0.7-2.8,2.8-2.1,4.7v0.1L86,42.6c0.4,0.9,0.6,1.8,0.6,2.8v16.5H84V45.4
		c0-1-0.2-1.9-0.6-2.8l-4.9-11.5c-0.8-1.8,0.1-4,1.9-4.7C80.5,26.3,80.5,26.3,80.5,26.3z"/>
</g>
<path class="st4" d="M84,82.6h2.8v2.8H84V82.6z"/>
<path class="st0" d="M38.4,89.5H19.1v-11h19.3V89.5z"/>
<path class="st1" d="M37.1,96.4H20.5v-6.9h16.6V96.4z"/>
<path class="st2" d="M21.7,78.4l-5.1-12.2C14.5,61,14.4,55,16.5,49.7l8.1-21.3c0.7-1.9,2.9-2.9,4.8-2.1l0,0c1.9,0.7,2.8,2.8,2.1,4.7
	v0.1l-4.9,11.5c-0.3,0.6-0.4,1.3-0.5,2c0.4-1.9,2.3-3,4.1-2.6c1.6,0.4,2.7,1.7,2.7,3.4V56c0,1.3,0.3,2.6,0.9,3.7
	c2.1,4.3,3.3,9,3.3,13.8v4.9H21.7L21.7,78.4z"/>
<g>
	<path class="st3" d="M33.8,59.8c-0.6-1.2-0.9-2.4-0.9-3.7V45.3c0-1.9-1.5-3.4-3.4-3.4c-0.5,0-0.9,0.1-1.4,0.3
		c1.3,0.6,2.1,1.8,2.1,3.2V56c0,1.3,0.3,2.6,0.9,3.7c2.1,4.3,3.3,9,3.3,13.8v4.9h2.8v-4.9C37.1,68.8,36,64.1,33.8,59.8z"/>
	<path class="st3" d="M29.5,26.3c-0.9-0.3-1.9-0.3-2.7,0c1.9,0.7,2.8,2.8,2.1,4.7v0.1L24,42.6c-0.4,0.9-0.6,1.8-0.6,2.8v16.5H26
		V45.4c0-1,0.2-1.9,0.6-2.8l4.9-11.5c0.8-1.8-0.1-4-1.9-4.7C29.5,26.3,29.5,26.3,29.5,26.3z"/>
</g>
<path class="st4" d="M23.3,82.6H26v2.8h-2.8L23.3,82.6L23.3,82.6z"/>
<circle class="st5" cx="55" cy="45.3" r="16.6"/>
<g>
	<path class="st6" d="M61.9,44h2.8v2.8h-2.8C61.9,46.8,61.9,44,61.9,44z"/>
	<path class="st6" d="M45.3,44h2.8v2.8h-2.8V44z"/>
	<path class="st6" d="M67.4,24.7h2.8v11.6h-2.8V24.7z"/>
	<path class="st6" d="M42.6,19.1h2.8V33h-2.8V19.1z"/>
	<path class="st6" d="M63.3,32.4c-0.2,0-0.5-0.1-0.7-0.2c-3.1-1.8-6.6-2.4-10.1-1.8c-0.4,0.1-0.8,0-1.1-0.3s-0.5-0.7-0.5-1.1v-8.5
		h2.8v7c0.5,0,0.9-0.1,1.4-0.1c2.4,0,4.7,0.5,6.9,1.4v-11h2.8V31C64.7,31.8,64,32.4,63.3,32.4z"/>
	<path class="st6" d="M56.4,15h2.8v5.5h-2.8V15L56.4,15z"/>
	<path class="st6" d="M55,71.6c-2.5,0-4.9-0.3-7.3-1l0.8-2.7c2.1,0.6,4.3,0.9,6.5,0.9c5.2,0,10.2-1.7,14.3-4.9l1.7,2.2
		C66.4,69.6,60.8,71.6,55,71.6z"/>
	<path class="st6" d="M37.5,29.7l-2.1-1.8c1.1-1.2,2.2-2.3,3.5-3.3l1.7,2.2C39.5,27.7,38.5,28.6,37.5,29.7z"/>
	<path class="st6" d="M42.6,13.6h2.8v2.8h-2.8V13.6z"/>
	<path class="st6" d="M67.4,19.1h2.8v2.8h-2.8V19.1z"/>
	<path class="st6" d="M44.8,69.5c-1-0.4-2-0.9-2.9-1.5l1.4-2.4c0.8,0.5,1.7,0.9,2.6,1.3L44.8,69.5z"/>
</g>
<g>
	<g>
		<path class="st7" d="M58.3,42.9h-0.7c-0.1-0.5-0.3-0.9-0.6-1.3h1.4c0.4,0,0.7-0.3,0.7-0.7s-0.3-0.7-0.7-0.7h-4h-2.7
			c-0.4,0-0.7,0.3-0.7,0.7s0.3,0.7,0.7,0.7h2.7c0.9,0,1.6,0.6,1.9,1.3h-4.5c-0.4,0-0.7,0.3-0.7,0.7c0,0.4,0.3,0.7,0.7,0.7h4.5
			c-0.3,0.8-1,1.3-1.9,1.3h-2.7c-0.1,0-0.2,0-0.3,0.1c-0.2,0.1-0.3,0.2-0.4,0.4c-0.1,0.2-0.1,0.3,0,0.5c0,0.1,0.1,0.2,0.1,0.2
			l5.3,5.3c0.1,0.1,0.3,0.2,0.5,0.2c0.2,0,0.3-0.1,0.5-0.2c0.3-0.3,0.3-0.7,0-0.9l-4.2-4.2h1.1c1.6,0,3-1.1,3.3-2.7h0.7
			c0.4,0,0.7-0.3,0.7-0.7C59,43.2,58.7,42.9,58.3,42.9z"/>
	</g>
</g>
</svg>
